HIERARCHY
ROOT SpineBase
{
  OFFSET 0.000000 0.000000 0.000000
  CHANNELS 6 Xposition Yposition Zposition Zrotation Xrotation Yrotation
  JOINT SpineMid
  {
    OFFSET -0.000000 29.694045 0.000000
    CHANNELS 3 Zrotation Xrotation Yrotation
    JOINT SpineShoulder
    {
      OFFSET -0.021198 22.025689 -0.823217
      CHANNELS 3 Zrotation Xrotation Yrotation
      JOINT Neck
      {
        OFFSET -0.012821 7.283981 -0.608852
        CHANNELS 3 Zrotation Xrotation Yrotation
        JOINT Head
        {
          OFFSET 4.810491 12.363885 1.317794
          CHANNELS 3 Zrotation Xrotation Yrotation
          End Site
          {
            OFFSET 0 0 0
          }
        }
      }
      JOINT ShoulderLeft
      {
        OFFSET -12.062995 -3.525311 -9.728770
        CHANNELS 3 Zrotation Xrotation Yrotation
        JOINT ElbowLeft
        {
          OFFSET -6.366633 -22.538261 -0.919795
          CHANNELS 3 Zrotation Xrotation Yrotation
          JOINT WristLeft
          {
            OFFSET -0.106628 -19.706756 -5.419369
            CHANNELS 3 Zrotation Xrotation Yrotation
            JOINT HandLeft
            {
              OFFSET 0.469266 -7.126337 -0.671487
              CHANNELS 3 Zrotation Xrotation Yrotation
              JOINT HandTipLeft
              {
                OFFSET -0.267751 -6.394469 -1.005944
                CHANNELS 3 Zrotation Xrotation Yrotation
                End Site
                {
                  OFFSET 0 0 0
                }
              }
              JOINT ThumbLeft
              {
                OFFSET 2.855051 0.317500 -0.976524
                CHANNELS 3 Zrotation Xrotation Yrotation
                End Site
                {
                  OFFSET 0 0 0
                }
              }
            }
          }
        }
      }
      JOINT ShoulderRight
      {
        OFFSET 14.308114 -4.967976 4.486221
        CHANNELS 3 Zrotation Xrotation Yrotation
        JOINT ElbowRight
        {
          OFFSET 1.460210 -23.980514 6.212195
          CHANNELS 3 Zrotation Xrotation Yrotation
          JOINT WristRight
          {
            OFFSET 0.790872 -18.303778 -3.459005
            CHANNELS 3 Zrotation Xrotation Yrotation
            JOINT HandRight
            {
              OFFSET -0.907888 -5.368089 -1.534137
              CHANNELS 3 Zrotation Xrotation Yrotation
              JOINT HandTipRight
              {
                OFFSET 0.166835 -7.395921 -0.352338
                CHANNELS 3 Zrotation Xrotation Yrotation
                End Site
                {
                  OFFSET 0 0 0
                }
              }
              JOINT ThumbRight
              {
                OFFSET 1.232542 -1.779477 -1.448528
                CHANNELS 3 Zrotation Xrotation Yrotation
                End Site
                {
                  OFFSET 0 0 0
                }
              }
            }
          }
        }
      }
    }
  }
  JOINT HipLeft
  {
    OFFSET -5.552178 1.343832 -6.480119
    CHANNELS 3 Zrotation Xrotation Yrotation
    JOINT KneeLeft
    {
      OFFSET -10.902611 -26.088594 4.527937
      CHANNELS 3 Zrotation Xrotation Yrotation
      JOINT AnkleLeft
      {
        OFFSET -6.536575 -33.866827 7.891665
        CHANNELS 3 Zrotation Xrotation Yrotation
        JOINT FootLeft
        {
          OFFSET 3.946664 -6.134645 0.278002
          CHANNELS 3 Zrotation Xrotation Yrotation
          End Site
          {
            OFFSET 0 0 0
          }
        }
      }
    }
  }
  JOINT HipRight
  {
    OFFSET 5.385915 0.170459 -0.350074
    CHANNELS 3 Zrotation Xrotation Yrotation
    JOINT KneeRight
    {
      OFFSET -8.483284 -31.542135 9.848753
      CHANNELS 3 Zrotation Xrotation Yrotation
      JOINT AnkleRight
      {
        OFFSET -6.681888 -27.336393 6.074283
        CHANNELS 3 Zrotation Xrotation Yrotation
        JOINT FootRight
        {
          OFFSET 4.016541 -3.978683 -11.323734
          CHANNELS 3 Zrotation Xrotation Yrotation
          End Site
          {
            OFFSET 0 0 0
          }
        }
      }
    }
  }
}
MOTION
Frames: 16
Frame Time: 0.033333
9.319701 65.085430 337.838455 0.000000 0.000000 -29.267615 -0.000000 0.000000 29.267615 -0.000000 0.000000 0.000000 -0.000000 0.000000 0.000000 0.000000 0.000000 0.000000 -0.000000 0.000000 0.000000 -0.000000 0.000000 0.000000 -0.000000 0.000000 0.000000 -0.000000 0.000000 0.000000 0.000000 0.000000 0.000000 0.000000 0.000000 0.000000 -0.000000 0.000000 0.000000 -0.000000 0.000000 0.000000 -0.000000 0.000000 0.000000 -0.000000 0.000000 0.000000 0.000000 0.000000 0.000000 0.000000 0.000000 0.000000 -0.000000 0.000000 29.267615 -0.000000 0.000000 0.000000 -0.000000 0.000000 0.000000 0.000000 0.000000 0.000000 -0.000000 0.000000 29.267615 -0.000000 0.000000 0.000000 -0.000000 0.000000 0.000000 0.000000 0.000000 0.000000
9.111784 64.960073 337.873231 -0.258873 -0.107199 -28.944038 0.174659 0.219091 28.943462 -0.000000 0.000000 0.000000 -0.000000 0.000000 0.000000 0.000000 0.000000 0.000000 -0.000000 0.000000 0.000000 -0.925315 -1.378401 0.251616 -2.345178 -2.547894 -0.259595 2.034961 -0.820319 0.266895 0.000000 0.000000 0.000000 0.000000 0.000000 0.000000 -0.000000 0.000000 0.000000 -1.137451 -3.651080 0.021031 2.029506 1.092190 0.048151 0.247469 0.583152 -0.288639 0.000000 0.000000 0.000000 0.000000 0.000000 0.000000 0.174659 0.219091 28.943462 -0.000000 0.000000 0.000000 -1.030729 0.169222 0.064054 0.000000 0.000000 0.000000 0.629611 0.880220 29.067249 -0.718856 -0.356797 -0.130390 -0.000000 0.000000 0.000000 0.000000 0.000000 0.000000
8.960281 64.864465 337.875095 -0.447126 -0.167667 -28.651718 0.311988 0.361522 28.650080 -0.000000 0.000000 0.000000 -0.000000 0.000000 0.000000 0.000000 0.000000 0.000000 -0.000000 0.000000 0.000000 -1.506791 -2.201228 0.399435 -3.635253 -3.974521 -0.464705 3.183487 -1.697630 0.363929 0.000000 0.000000 0.000000 0.000000 0.000000 0.000000 -0.409779 0.709731 -0.060510 -1.444711 -6.750695 0.034888 3.394545 2.221066 -0.091433 0.763587 0.341823 -0.427470 0.000000 0.000000 0.000000 0.000000 0.000000 0.000000 0.234990 1.553655 28.284932 -0.497151 -1.086268 0.361722 -1.971562 0.347170 0.141556 0.000000 0.000000 0.000000 1.147137 1.533415 28.872682 -2.044370 -1.732605 -0.152047 0.744289 1.111660 -0.113994 0.000000 0.000000 0.000000
8.865192 64.798606 337.844047 -0.565446 -0.181745 -28.387566 0.411056 0.428714 28.385132 -0.000000 0.000000 0.000000 -0.000000 0.000000 0.000000 0.000000 0.000000 0.000000 -0.000000 0.000000 0.000000 -1.763355 -2.488597 0.462849 -3.945391 -4.408953 -0.559020 3.543537 -2.503166 0.395932 0.000000 0.000000 0.000000 0.000000 0.000000 0.000000 -0.472110 1.000105 -0.057426 -1.686157 -8.160265 -0.008579 4.210012 2.958204 -0.290777 1.417620 -0.195988 -0.433792 0.000000 0.000000 0.000000 0.000000 0.000000 0.000000 0.358939 1.886589 27.950249 -1.067667 -2.076809 0.461233 -2.384720 1.295972 0.221510 0.000000 0.000000 0.000000 1.534823 1.939913 28.682818 -2.690288 -2.236537 -0.218693 0.973720 1.453948 -0.152140 0.000000 0.000000 0.000000
8.826516 64.762497 337.780088 -0.614269 -0.149606 -28.149828 0.471042 0.421700 28.147293 -0.000000 0.000000 0.000000 -0.000000 0.000000 0.000000 0.000000 0.000000 0.000000 -0.000000 0.000000 0.000000 -1.701872 -2.246535 0.449219 -3.309166 -3.909164 -0.528089 3.157743 -3.199174 0.401055 0.000000 0.000000 0.000000 0.000000 0.000000 0.000000 -0.439772 1.247551 -0.033270 -1.607366 -8.270631 -0.044810 4.546572 3.167390 -0.496597 2.128095 -0.778820 -0.298527 0.000000 0.000000 0.000000 0.000000 0.000000 0.000000 0.481691 1.894421 27.726785 -1.132937 -2.104917 0.450906 -3.133499 1.532467 0.331253 0.000000 0.000000 0.000000 1.777781 2.084926 28.497169 -3.071543 -2.508699 -0.264360 1.122138 1.675742 -0.177696 0.000000 0.000000 0.000000
8.844255 64.756136 337.683218 -0.593777 -0.071255 -27.938057 0.491198 0.341139 27.936225 -0.000000 0.000000 0.000000 -0.000000 0.000000 0.000000 0.000000 0.000000 0.000000 -0.000000 0.000000 0.000000 -1.317389 -1.465961 0.354601 -1.704455 -2.444749 -0.389528 1.998406 -3.819306 0.359436 0.000000 0.000000 0.000000 0.000000 0.000000 0.000000 -0.312928 1.452234 0.011374 -1.211551 -7.098160 -0.074516 4.459520 2.874807 -0.713780 2.827068 -1.326093 0.009604 0.000000 0.000000 0.000000 0.000000 0.000000 0.000000 0.598023 1.573836 27.615538 -1.047857 -1.788390 0.356961 -3.855048 1.675473 0.450545 0.000000 0.000000 0.000000 1.865149 1.960093 28.315432 -3.181093 -2.553460 -0.282970 1.195224 1.785863 -0.190739 0.000000 0.000000 0.000000
8.952708 64.755670 337.601432 -0.455192 0.006338 -27.766342 0.405733 0.206450 27.765636 -0.000000 0.000000 0.000000 -0.000000 0.000000 0.000000 0.000000 0.000000 0.000000 -0.000000 0.000000 0.000000 -2.235632 -1.575698 0.594839 3.455281 2.382954 -0.753909 -0.228429 -5.493539 0.145639 0.000000 0.000000 0.000000 0.000000 0.000000 0.000000 -0.232733 2.265238 0.082697 -0.713937 -6.897955 -0.173339 3.679627 2.994826 -0.708545 0.200923 -2.998417 0.343050 0.000000 0.000000 0.000000 0.000000 0.000000 0.000000 0.405733 0.206450 27.765636 -0.000000 0.000000 0.000000 -4.842120 1.378109 0.746035 0.000000 0.000000 0.000000 1.538965 1.357998 28.100351 -2.536920 -2.029976 -0.218119 0.989290 1.551669 -0.173756 0.000000 0.000000 0.000000
9.197189 64.817644 337.445532 -0.141464 0.181245 -27.668402 0.209449 -0.094830 27.668799 -0.000000 0.000000 0.000000 -0.000000 0.000000 0.000000 0.000000 0.000000 0.000000 -0.000000 0.000000 0.000000 -0.952919 0.592360 0.263394 5.898690 4.162930 -0.555396 -3.370978 -6.288480 -0.088950 0.000000 0.000000 0.000000 0.000000 0.000000 0.000000 0.060228 2.267611 0.153287 -0.022425 -3.629467 -0.221517 3.566751 3.407413 -1.461206 -0.453910 -6.167575 1.302016 0.000000 0.000000 0.000000 0.000000 0.000000 0.000000 0.209449 -0.094830 27.668799 -0.000000 0.000000 0.000000 -5.401022 1.838798 1.057712 0.000000 0.000000 0.000000 1.190737 0.941131 27.960213 -2.599855 -2.216399 -0.176702 1.242470 1.764906 -0.175544 0.000000 0.000000 0.000000
9.345106 64.914084 337.214477 0.028467 0.421612 -27.497241 0.169412 -0.387127 27.497708 -0.000000 0.000000 0.000000 -0.000000 0.000000 0.000000 0.000000 0.000000 0.000000 -0.263374 -0.899824 0.262782 2.060740 5.577306 -0.873711 8.471312 6.246281 0.044293 -7.338018 -4.727709 -1.038848 0.000000 0.000000 0.000000 0.000000 0.000000 0.000000 0.660900 1.411075 0.249706 1.169667 3.280179 -0.434894 3.758458 3.451197 -2.817249 -0.378817 -5.897016 2.978698 0.000000 0.000000 0.000000 0.000000 0.000000 0.000000 0.541775 -1.339586 27.908440 0.116747 1.015958 -0.406156 -6.170366 2.029466 1.176997 0.000000 0.000000 0.000000 0.891002 -0.042525 27.757816 -1.836018 -1.466085 -0.132626 1.033863 1.499347 -0.151075 0.000000 0.000000 0.000000
9.442888 65.019501 337.004440 0.130994 0.613848 -27.168583 0.163752 -0.605932 27.168747 -0.000000 0.000000 0.000000 -0.000000 0.000000 0.000000 0.000000 0.000000 0.000000 -0.862638 -0.859262 0.270973 7.414035 11.445855 -2.768897 10.405802 7.446780 1.257807 -11.462053 -0.989567 -2.841738 0.000000 0.000000 0.000000 0.000000 0.000000 0.000000 1.442042 0.413655 0.393631 3.640805 13.274746 -1.305022 2.854979 1.956271 -4.236770 0.954209 -4.473292 5.054114 0.000000 0.000000 0.000000 0.000000 0.000000 0.000000 0.583864 -1.946934 27.713821 0.251740 1.382506 -0.538751 -6.761491 1.928563 1.090247 0.000000 0.000000 0.000000 0.163752 -0.605932 27.168747 -0.928321 -1.372441 0.117538 0.931400 1.370353 -0.139796 0.000000 0.000000 0.000000
9.365211 65.166210 336.751353 0.004716 0.851443 -26.589701 0.376909 -0.763496 26.592177 -0.000000 0.000000 0.000000 -0.000000 0.000000 0.000000 0.000000 0.000000 0.000000 -1.377771 -0.227001 0.117236 15.972501 17.931894 -6.316965 7.738219 8.983157 3.133538 -13.319315 0.880996 -5.273318 0.000000 0.000000 0.000000 0.000000 0.000000 0.000000 2.272151 -0.635995 0.561079 7.768503 24.804854 -3.462326 4.059092 10.020465 -8.909286 6.463857 -10.058048 12.233390 0.000000 0.000000 0.000000 0.000000 0.000000 0.000000 1.442708 -2.393252 27.466822 -0.194224 1.937365 -0.842001 -6.410945 1.585300 0.849024 0.000000 0.000000 0.000000 1.414456 -0.747384 27.019227 -2.321131 -1.449688 -0.259989 1.381577 1.912371 -0.184769 0.000000 0.000000 0.000000
9.177846 65.389137 336.533016 -0.234845 1.054492 -26.472972 0.141080 -0.117242 26.470456 0.160893 -0.886638 0.006403 -0.000000 0.000000 0.000000 0.000000 0.000000 0.000000 -1.950997 0.953420 -0.172577 27.685219 23.077396 -11.590692 3.105068 17.039560 3.586741 -13.018451 0.281007 -9.042872 0.000000 0.000000 0.000000 0.000000 0.000000 0.000000 3.276557 -2.528851 0.761666 16.961293 41.188958 -9.935948 15.122993 1.810219 -9.662230 1.266906 -1.538313 16.211784 0.000000 0.000000 0.000000 0.000000 0.000000 0.000000 2.269045 -2.001202 27.407565 -0.875996 1.762227 -0.874597 -6.462309 1.720401 0.945831 0.000000 0.000000 0.000000 2.247836 -0.573243 27.099926 -3.217477 -1.757829 -0.436699 1.685073 2.246909 -0.209542 0.000000 0.000000 0.000000
8.926291 65.657834 336.391695 -0.531647 1.190615 -26.858803 0.245974 -0.053688 26.854148 0.083676 -0.245575 -0.007961 0.253058 -0.785906 0.021492 0.000000 0.000000 0.000000 -2.542213 2.066955 -0.634309 40.129736 26.951936 -17.224685 3.067275 22.230990 3.327644 -17.620256 0.867484 -14.261089 0.000000 0.000000 0.000000 0.000000 0.000000 0.000000 4.858241 -5.352222 1.167807 31.146058 57.446405 -23.247150 13.058501 5.990857 -13.932389 9.882036 -2.335616 27.172979 0.000000 0.000000 0.000000 0.000000 0.000000 0.000000 3.247428 -1.681363 27.944933 -1.572633 1.805459 -0.999733 -6.316585 1.950884 1.116796 0.000000 0.000000 0.000000 3.197438 -0.027969 27.687513 -4.284003 -2.190659 -0.641187 1.953934 2.523337 -0.227769 0.000000 0.000000 0.000000
8.657788 65.945045 336.357492 -0.816570 1.231049 -27.691948 0.310952 0.037880 27.684478 0.178500 -0.204943 -0.007629 0.345536 -0.914916 0.030011 0.000000 0.000000 0.000000 -2.236512 5.173020 -1.477353 53.769884 26.665699 -22.182334 2.087027 27.554222 1.467610 -18.337559 1.989780 -19.280113 0.000000 0.000000 0.000000 0.000000 0.000000 0.000000 5.095009 -2.344526 1.301060 58.761956 67.360660 -48.133567 -14.487438 7.597178 -25.497507 36.190672 8.693815 43.521910 0.000000 0.000000 0.000000 0.000000 0.000000 0.000000 4.075008 -1.323124 28.908832 -2.138469 1.878502 -1.115680 -5.440284 1.971775 1.151679 0.000000 0.000000 0.000000 4.415725 1.683042 28.724268 -6.523270 -3.834303 -0.934813 2.587349 3.275592 -0.303452 0.000000 0.000000 0.000000
8.406978 66.215550 336.423294 -1.070801 1.192879 -28.742761 0.329930 0.158078 28.731824 0.270474 -0.099199 -0.006855 0.435587 -1.073242 0.038570 0.000000 0.000000 0.000000 -0.047771 9.383725 -2.854182 65.571146 23.237429 -24.252856 0.139742 30.192008 -1.069339 -14.332035 5.659136 -23.435041 0.000000 0.000000 0.000000 0.000000 0.000000 0.000000 6.017041 2.669004 1.645488 86.186068 72.742807 -76.187233 -24.717522 -2.024550 -33.414454 45.207816 25.866103 49.037746 0.000000 0.000000 0.000000 0.000000 0.000000 0.000000 4.856850 -0.901462 30.098583 -2.709129 1.995907 -1.248659 -4.768339 2.137731 1.283672 0.000000 0.000000 0.000000 5.246776 3.302114 29.866845 -8.079451 -5.127256 -1.151439 2.862057 3.721577 -0.371853 0.000000 0.000000 0.000000
8.219706 66.431830 336.544942 -1.248275 1.127613 -29.742834 0.303975 0.307190 29.729759 0.351215 0.046765 -0.004017 1.301806 -0.898831 -0.180865 0.000000 0.000000 0.000000 3.740514 14.072267 -4.831364 73.331549 17.435715 -21.415945 5.015236 33.285157 -5.638363 -13.236722 10.193195 -31.477638 0.000000 0.000000 0.000000 0.000000 0.000000 0.000000 7.368899 9.357058 2.038399 102.062032 77.435703 -96.240721 -25.686459 -8.897393 -37.732205 46.736365 41.148336 55.393562 0.000000 0.000000 0.000000 0.000000 0.000000 0.000000 5.427631 -0.614783 31.230919 -3.105668 2.178326 -1.379398 -2.493844 1.857875 1.139520 0.000000 0.000000 0.000000 5.713530 4.722539 30.876878 -9.225044 -6.194070 -1.313640 2.819751 4.277644 0.492523 0.000000 0.000000 0.000000
